<svg width="545" height="590" viewBox="0 0 545 590" fill="none" xmlns="http://www.w3.org/2000/svg">
<mask id="mask0_24_30" style="mask-type:alpha" maskUnits="userSpaceOnUse" x="0" y="0" width="545" height="590">
<rect width="545" height="590" fill="#C4C4C4"/>
</mask>
<g mask="url(#mask0_24_30)">
<ellipse cx="262" cy="184" rx="400" ry="406" fill="url(#paint0_linear_24_30)"/>
<mask id="mask1_24_30" style="mask-type:alpha" maskUnits="userSpaceOnUse" x="-138" y="-222" width="801" height="812">
<ellipse cx="262" cy="184" rx="400" ry="406" fill="url(#paint1_linear_24_30)"/>
</mask>
<g mask="url(#mask1_24_30)">
<circle cx="-15.5831" cy="29.4169" r="166.334" transform="rotate(66.1297 -15.5831 29.4169)" fill="url(#paint2_linear_24_30)"/>
<circle cx="113.417" cy="538.417" r="166.334" transform="rotate(66.1297 113.417 538.417)" fill="url(#paint3_linear_24_30)"/>
</g>
<path d="M108.127 287.5C108.127 281.26 109.417 275.71 111.997 270.85C114.637 265.93 118.237 262.09 122.797 259.33C127.417 256.57 132.577 255.19 138.277 255.19C145.477 255.19 151.537 256.87 156.457 260.23C161.377 263.59 164.977 268.3 167.257 274.36H162.577C160.777 269.56 157.777 265.78 153.577 263.02C149.437 260.2 144.337 258.79 138.277 258.79C133.417 258.79 129.007 259.96 125.047 262.3C121.087 264.58 117.967 267.91 115.687 272.29C113.407 276.61 112.267 281.68 112.267 287.5C112.267 293.26 113.407 298.3 115.687 302.62C117.967 306.88 121.087 310.18 125.047 312.52C129.007 314.86 133.417 316.03 138.277 316.03C144.337 316.03 149.437 314.65 153.577 311.89C157.777 309.07 160.777 305.26 162.577 300.46H167.257C164.977 306.52 161.377 311.23 156.457 314.59C151.537 317.95 145.477 319.63 138.277 319.63C132.577 319.63 127.417 318.28 122.797 315.58C118.237 312.82 114.637 309.01 111.997 304.15C109.417 299.23 108.127 293.68 108.127 287.5ZM181.974 259.24C181.014 259.24 180.204 258.94 179.544 258.34C178.884 257.68 178.554 256.81 178.554 255.73C178.554 254.71 178.884 253.87 179.544 253.21C180.204 252.55 181.014 252.22 181.974 252.22C182.934 252.22 183.744 252.55 184.404 253.21C185.064 253.87 185.394 254.71 185.394 255.73C185.394 256.81 185.064 257.68 184.404 258.34C183.744 258.94 182.934 259.24 181.974 259.24ZM183.954 270.13V319H179.904V270.13H183.954ZM204.831 273.64V305.95C204.831 309.55 205.491 312.04 206.811 313.42C208.131 314.74 210.471 315.4 213.831 315.4H219.321V319H213.201C208.941 319 205.791 318.01 203.751 316.03C201.771 313.99 200.781 310.63 200.781 305.95V273.64H193.401V270.13H200.781V257.71H204.831V270.13H219.321V273.64H204.831ZM268.162 270.13L239.722 341.95H235.582L244.672 319L224.152 270.13H228.562L246.922 314.5L264.022 270.13H268.162ZM320.309 275.08C320.309 278.26 319.559 281.26 318.059 284.08C316.559 286.9 314.159 289.21 310.859 291.01C307.559 292.75 303.329 293.62 298.169 293.62H286.829V319H276.569V256.45H298.169C302.969 256.45 307.019 257.29 310.319 258.97C313.679 260.59 316.169 262.81 317.789 265.63C319.469 268.45 320.309 271.6 320.309 275.08ZM298.169 285.25C302.069 285.25 304.979 284.38 306.899 282.64C308.819 280.84 309.779 278.32 309.779 275.08C309.779 268.24 305.909 264.82 298.169 264.82H286.829V285.25H298.169ZM351.605 319.81C346.925 319.81 342.695 318.76 338.915 316.66C335.135 314.5 332.165 311.5 330.005 307.66C327.845 303.76 326.765 299.26 326.765 294.16C326.765 289.12 327.875 284.65 330.095 280.75C332.315 276.85 335.345 273.85 339.185 271.75C343.025 269.65 347.315 268.6 352.055 268.6C356.795 268.6 361.085 269.65 364.925 271.75C368.765 273.85 371.795 276.85 374.015 280.75C376.235 284.65 377.345 289.12 377.345 294.16C377.345 299.2 376.205 303.67 373.925 307.57C371.645 311.47 368.525 314.5 364.565 316.66C360.665 318.76 356.345 319.81 351.605 319.81ZM351.605 310.9C354.245 310.9 356.705 310.27 358.985 309.01C361.325 307.75 363.215 305.86 364.655 303.34C366.095 300.82 366.815 297.76 366.815 294.16C366.815 290.56 366.125 287.53 364.745 285.07C363.365 282.55 361.535 280.66 359.255 279.4C356.975 278.14 354.515 277.51 351.875 277.51C349.235 277.51 346.775 278.14 344.495 279.4C342.275 280.66 340.505 282.55 339.185 285.07C337.865 287.53 337.205 290.56 337.205 294.16C337.205 299.5 338.555 303.64 341.255 306.58C344.015 309.46 347.465 310.9 351.605 310.9ZM397.747 276.7C399.487 274.42 401.857 272.5 404.857 270.94C407.857 269.38 411.247 268.6 415.027 268.6C419.347 268.6 423.277 269.68 426.817 271.84C430.417 273.94 433.237 276.91 435.277 280.75C437.317 284.59 438.337 289 438.337 293.98C438.337 298.96 437.317 303.43 435.277 307.39C433.237 311.29 430.417 314.35 426.817 316.57C423.277 318.73 419.347 319.81 415.027 319.81C411.247 319.81 407.887 319.06 404.947 317.56C402.007 316 399.607 314.08 397.747 311.8V342.58H387.487V269.41H397.747V276.7ZM427.897 293.98C427.897 290.56 427.177 287.62 425.737 285.16C424.357 282.64 422.497 280.75 420.157 279.49C417.877 278.17 415.417 277.51 412.777 277.51C410.197 277.51 407.737 278.17 405.397 279.49C403.117 280.81 401.257 282.73 399.817 285.25C398.437 287.77 397.747 290.74 397.747 294.16C397.747 297.58 398.437 300.58 399.817 303.16C401.257 305.68 403.117 307.6 405.397 308.92C407.737 310.24 410.197 310.9 412.777 310.9C415.417 310.9 417.877 310.24 420.157 308.92C422.497 307.54 424.357 305.56 425.737 302.98C427.177 300.4 427.897 297.4 427.897 293.98Z" fill="white"/>
</g>
<defs>
<linearGradient id="paint0_linear_24_30" x1="262" y1="-222" x2="262" y2="590" gradientUnits="userSpaceOnUse">
<stop stop-color="#504ED9"/>
<stop offset="1" stop-color="#504ED9" stop-opacity="0.64"/>
</linearGradient>
<linearGradient id="paint1_linear_24_30" x1="262" y1="-222" x2="262" y2="590" gradientUnits="userSpaceOnUse">
<stop stop-color="#504ED9"/>
<stop offset="1" stop-color="#504ED9" stop-opacity="0.64"/>
</linearGradient>
<linearGradient id="paint2_linear_24_30" x1="-15.5831" y1="-136.917" x2="-15.5831" y2="195.751" gradientUnits="userSpaceOnUse">
<stop stop-color="white" stop-opacity="0.23"/>
<stop offset="1" stop-color="#C4C4C4" stop-opacity="0"/>
</linearGradient>
<linearGradient id="paint3_linear_24_30" x1="113.417" y1="372.083" x2="113.417" y2="704.751" gradientUnits="userSpaceOnUse">
<stop stop-color="white" stop-opacity="0.23"/>
<stop offset="1" stop-color="#C4C4C4" stop-opacity="0"/>
</linearGradient>
</defs>
</svg>
